FFmpeg version SVN-r25716, Copyright (c) 2000-2010 the FFmpeg developers  built on Nov 10 2010 12:23:18 with gcc 4.1.2 20080704 (Red Hat 4.1.2-48)  configuration: --enable-libmp3lame --enable-shared --disable-mmx --arch=x86_64  libavutil     50.33. 0 / 50.33. 0  libavcore      0.12. 1 /  0.12. 1  libavcodec    52.94. 4 / 52.94. 4  libavformat   52.84. 0 / 52.84. 0  libavdevice   52. 2. 2 / 52. 2. 2  libavfilter    1.59. 0 /  1.59. 0  libswscale     0.12. 0 /  0.12. 0Seems stream 0 codec frame rate differs from container frame rate: 1200.00 (1200/1) -> 10.00 (10/1)Input #0, mov,mp4,m4a,3gp,3g2,mj2, from '/RAID10/data/converted_video_files/42151.mov':  Metadata:    major_brand     : qt      minor_version   : 537199360    compatible_brands: qt    Duration: 00:00:21.20, start: 0.000000, bitrate: 958 kb/s    Stream #0.0(eng): Video: h264, yuv420p, 720x480, 956 kb/s, PAR 10:11 DAR 15:11, 10 fps, 10 tbr, 600 tbn, 1200 tbc[buffer @ 0x1cadff90] w:720 h:480 pixfmt:yuv420pOutput #0, flv, to '/RAID10/data/converted_video_files/42151.flv':  Metadata:    encoder         : Lavf52.84.0    Stream #0.0(eng): Video: flv, yuv420p, 720x480 [PAR 10:11 DAR 15:11], q=2-31, 600 kb/s, 1k tbn, 24 tbcStream mapping:  Stream #0.0 -> #0.0Press [q] to stop encodingframe=   29 fps=  0 q=3.6 size=     216kB time=2.83 bitrate= 623.7kbits/s    frame=   61 fps= 58 q=2.8 size=     425kB time=6.04 bitrate= 576.1kbits/s    frame=   92 fps= 58 q=5.2 size=     604kB time=9.12 bitrate= 542.7kbits/s    frame=  120 fps= 58 q=3.8 size=     753kB time=11.96 bitrate= 516.0kbits/s    frame=  152 fps= 59 q=3.8 size=     961kB time=15.12 bitrate= 520.4kbits/s    frame=  183 fps= 59 q=4.2 size=    1170kB time=18.25 bitrate= 525.3kbits/s    frame=  212 fps= 59 q=4.4 Lsize=    1354kB time=21.12 bitrate= 525.0kbits/s    video:1350kB audio:0kB global headers:0kB muxing overhead 0.260534%